# xmcd
#
# Track frame offsets:
#	150
#	20428
#	27546
#	38750
#	58488
#	76700
#	90574
#	110811
#	131290
#	141353
#	143052
#	151832
#	159854
#	168044
#	177104
#	185156
#	196070
#	204530
#	212022
#	220224
#	227406
#	236208
#	244522
#	253447
#	261685
#
# Disc length: 3681 seconds
#
# Revision: 1
# Processed by: cddbd v1.5.1PL0 Copyright (c) Steve Scherf et al.
# Submitted via: CDex 1.50Beta5
#
DISCID=640e5f19
DTITLE=CLOVER - MOLDAVITE SOUND TRACK
DYEAR=1900
DGENRE=Game
TTITLE0=この手の中の未来
TTITLE1=タイトル
TTITLE2=準備
TTITLE3=戦闘
TTITLE4=焦燥
TTITLE5=決心
TTITLE6=ベリル
TTITLE7=騎士
TTITLE8=急襲
TTITLE9=ゲームオーバー
TTITLE10=読書
TTITLE11=野遊び
TTITLE12=日常
TTITLE13=ステラ
TTITLE14=抱擁
TTITLE15=結晶
TTITLE16=ひなたぼっこ
TTITLE17=吟遊詩人
TTITLE18=オカリーナ
TTITLE19=音盤
TTITLE20=風蝕
TTITLE21=アマネ
TTITLE22=アテナ
TTITLE23=エピローグ
TTITLE24=エンディング
EXTD=
EXTT0=
EXTT1=
EXTT2=
EXTT3=
EXTT4=
EXTT5=
EXTT6=
EXTT7=
EXTT8=
EXTT9=
EXTT10=
EXTT11=
EXTT12=
EXTT13=
EXTT14=
EXTT15=
EXTT16=
EXTT17=
EXTT18=
EXTT19=
EXTT20=
EXTT21=
EXTT22=
EXTT23=
EXTT24=
PLAYORDER=
